<mxfile host="app.diagrams.net" modified="2020-10-14T15:35:41.121Z" agent="5.0 (Macintosh; Intel Mac OS X 10_14_6) AppleWebKit/537.36 (KHTML, like Gecko) Chrome/86.0.4240.80 Safari/537.36" etag="MtOnkACFCza9GvuuxmQI" version="13.8.0" type="github">
  <diagram name="Page-1" id="97916047-d0de-89f5-080d-49f4d83e522f">
    <mxGraphModel dx="1113" dy="760" grid="1" gridSize="10" guides="1" tooltips="1" connect="1" arrows="1" fold="1" page="1" pageScale="1.5" pageWidth="1169" pageHeight="827" background="#ffffff" math="0" shadow="0">
      <root>
        <mxCell id="0" />
        <mxCell id="1" parent="0" />
        <mxCell id="qB4Lg8TbUBdIFVPG2dWj-83" style="edgeStyle=orthogonalEdgeStyle;rounded=1;orthogonalLoop=1;jettySize=auto;html=1;entryX=0.5;entryY=0;entryDx=0;entryDy=0;strokeWidth=3;" edge="1" parent="1" source="2" target="5">
          <mxGeometry relative="1" as="geometry" />
        </mxCell>
        <mxCell id="qB4Lg8TbUBdIFVPG2dWj-84" style="edgeStyle=orthogonalEdgeStyle;rounded=1;orthogonalLoop=1;jettySize=auto;html=1;strokeWidth=3;" edge="1" parent="1" source="2" target="4">
          <mxGeometry relative="1" as="geometry">
            <Array as="points">
              <mxPoint x="880" y="300" />
              <mxPoint x="382" y="300" />
            </Array>
          </mxGeometry>
        </mxCell>
        <mxCell id="2" value="Main " style="rounded=1;fillColor=#10739E;strokeColor=none;shadow=1;gradientColor=none;fontStyle=1;fontColor=#FFFFFF;fontSize=14;" parent="1" vertex="1">
          <mxGeometry x="780" y="120" width="200" height="60" as="geometry" />
        </mxCell>
        <mxCell id="3" value="계정연동" style="rounded=1;fillColor=#10739E;strokeColor=none;shadow=1;gradientColor=none;fontStyle=1;fontColor=#FFFFFF;fontSize=14;" parent="1" vertex="1">
          <mxGeometry x="1270" y="290" width="200" height="60" as="geometry" />
        </mxCell>
        <mxCell id="6" value="Counsel Division" style="rounded=1;fillColor=#10739E;strokeColor=none;shadow=1;gradientColor=none;fontStyle=1;fontColor=#FFFFFF;fontSize=14;" parent="1" vertex="1">
          <mxGeometry x="1440" y="615.5" width="200" height="60" as="geometry" />
        </mxCell>
        <mxCell id="7" value="이용 가이드" style="rounded=1;fillColor=#dae8fc;strokeColor=#6c8ebf;shadow=1;fontStyle=1;fontSize=14;" parent="1" vertex="1">
          <mxGeometry x="1270" y="400" width="200" height="60" as="geometry" />
        </mxCell>
        <mxCell id="8" value="MENU2 : 레시피" style="rounded=1;fillColor=#dae8fc;strokeColor=#6c8ebf;shadow=1;fontStyle=1;fontSize=14;" parent="1" vertex="1">
          <mxGeometry x="282" y="615.5" width="200" height="60" as="geometry" />
        </mxCell>
        <mxCell id="12" value="장바구니" style="rounded=1;fillColor=#10739E;strokeColor=none;shadow=1;gradientColor=none;fontStyle=1;fontColor=#FFFFFF;fontSize=14;" parent="1" vertex="1">
          <mxGeometry x="420" y="1070" width="200" height="60" as="geometry" />
        </mxCell>
        <mxCell id="13" value="MENU3  : My냉장고" style="rounded=1;fillColor=#dae8fc;strokeColor=#6c8ebf;shadow=1;fontStyle=1;fontSize=14;" parent="1" vertex="1">
          <mxGeometry x="552" y="615.5" width="200" height="60" as="geometry" />
        </mxCell>
        <mxCell id="18" value="MENU4 : 장바구니" style="rounded=1;fillColor=#dae8fc;strokeColor=#6c8ebf;shadow=1;fontStyle=1;fontSize=14;" parent="1" vertex="1">
          <mxGeometry x="842" y="615.5" width="200" height="60" as="geometry" />
        </mxCell>
        <mxCell id="23" value="MENU5 : 마이페이지" style="rounded=1;fillColor=#dae8fc;strokeColor=#6c8ebf;shadow=1;fontStyle=1;fontSize=14;" parent="1" vertex="1">
          <mxGeometry x="1092" y="615.5" width="200" height="60" as="geometry" />
        </mxCell>
        <mxCell id="38" value="" style="edgeStyle=elbowEdgeStyle;elbow=vertical;strokeWidth=4;endArrow=block;endFill=1;fontStyle=1;strokeColor=#23445D;entryX=0.5;entryY=1;entryDx=0;entryDy=0;" parent="1" source="8" target="11" edge="1">
          <mxGeometry x="62" y="165.5" width="100" height="100" as="geometry">
            <mxPoint x="62" y="265.5" as="sourcePoint" />
            <mxPoint x="162" y="165.5" as="targetPoint" />
          </mxGeometry>
        </mxCell>
        <mxCell id="41" value="" style="edgeStyle=elbowEdgeStyle;elbow=vertical;strokeWidth=4;endArrow=block;endFill=1;fontStyle=1;strokeColor=#23445D;" parent="1" source="11" target="12" edge="1">
          <mxGeometry x="62" y="195.5" width="100" height="100" as="geometry">
            <mxPoint x="62" y="295.5" as="sourcePoint" />
            <mxPoint x="162" y="195.5" as="targetPoint" />
          </mxGeometry>
        </mxCell>
        <mxCell id="42" value="" style="edgeStyle=elbowEdgeStyle;elbow=vertical;strokeWidth=4;endArrow=block;endFill=1;fontStyle=1;strokeColor=#23445D;entryX=0.5;entryY=1;entryDx=0;entryDy=0;" parent="1" source="13" target="16" edge="1">
          <mxGeometry x="62" y="165.5" width="100" height="100" as="geometry">
            <mxPoint x="62" y="265.5" as="sourcePoint" />
            <mxPoint x="162" y="165.5" as="targetPoint" />
          </mxGeometry>
        </mxCell>
        <mxCell id="46" value="" style="edgeStyle=elbowEdgeStyle;elbow=vertical;strokeWidth=4;endArrow=block;endFill=1;fontStyle=1;strokeColor=#23445D;entryX=0.5;entryY=0;entryDx=0;entryDy=0;" parent="1" source="18" target="22" edge="1">
          <mxGeometry x="72" y="165.5" width="100" height="100" as="geometry">
            <mxPoint x="72" y="265.5" as="sourcePoint" />
            <mxPoint x="172" y="165.5" as="targetPoint" />
          </mxGeometry>
        </mxCell>
        <mxCell id="1WMlmqz9AwvqURgGaY2q-55" value="정책동의" style="rounded=1;fillColor=#10739E;strokeColor=none;shadow=1;gradientColor=none;fontStyle=1;fontColor=#FFFFFF;fontSize=14;" parent="1" vertex="1">
          <mxGeometry x="1270" y="200" width="200" height="60" as="geometry" />
        </mxCell>
        <mxCell id="1WMlmqz9AwvqURgGaY2q-58" value="비동의&amp;nbsp; 할 경우" style="text;html=1;strokeColor=none;fillColor=none;align=center;verticalAlign=middle;whiteSpace=wrap;rounded=0;" parent="1" vertex="1">
          <mxGeometry x="910" y="220" width="98" height="20" as="geometry" />
        </mxCell>
        <mxCell id="7K2ZeRDJW1N4FeQ3j8sl-55" value="" style="edgeStyle=elbowEdgeStyle;elbow=vertical;strokeWidth=4;endArrow=block;endFill=1;fontStyle=1;strokeColor=#23445D;exitX=0.5;exitY=1;exitDx=0;exitDy=0;entryX=0.5;entryY=0;entryDx=0;entryDy=0;" parent="1" source="16" target="12" edge="1">
          <mxGeometry x="72" y="205.5" width="100" height="100" as="geometry">
            <mxPoint x="392" y="955.5" as="sourcePoint" />
            <mxPoint x="550" y="990" as="targetPoint" />
          </mxGeometry>
        </mxCell>
        <mxCell id="9" value="분야별 레시피 카테고리" style="rounded=1;fillColor=#10739E;strokeColor=none;shadow=1;gradientColor=none;fontStyle=1;fontColor=#FFFFFF;fontSize=14;" parent="1" vertex="1">
          <mxGeometry x="282" y="705.5" width="200" height="60" as="geometry" />
        </mxCell>
        <mxCell id="10" value="재료 정보 조회" style="rounded=1;fillColor=#10739E;strokeColor=none;shadow=1;gradientColor=none;fontStyle=1;fontColor=#FFFFFF;fontSize=14;" parent="1" vertex="1">
          <mxGeometry x="282" y="795.5" width="200" height="60" as="geometry" />
        </mxCell>
        <mxCell id="11" value="설정" style="rounded=1;fillColor=#10739E;strokeColor=none;shadow=1;gradientColor=none;fontStyle=1;fontColor=#FFFFFF;fontSize=14;" parent="1" vertex="1">
          <mxGeometry x="282" y="885.5" width="200" height="60" as="geometry" />
        </mxCell>
        <mxCell id="16" value="알림설정 &#xa;(재고 부족 시, 알림여부)" style="rounded=1;fillColor=#10739E;strokeColor=none;shadow=1;gradientColor=none;fontStyle=1;fontColor=#FFFFFF;fontSize=14;" parent="1" vertex="1">
          <mxGeometry x="552" y="885.5" width="200" height="60" as="geometry" />
        </mxCell>
        <mxCell id="15" value="레시피추천" style="rounded=1;fillColor=#10739E;strokeColor=none;shadow=1;gradientColor=none;fontStyle=1;fontColor=#FFFFFF;fontSize=14;" parent="1" vertex="1">
          <mxGeometry x="552" y="795.5" width="200" height="60" as="geometry" />
        </mxCell>
        <mxCell id="14" value="유통기한 관리" style="rounded=1;fillColor=#10739E;strokeColor=none;shadow=1;gradientColor=none;fontStyle=1;fontColor=#FFFFFF;fontSize=14;" parent="1" vertex="1">
          <mxGeometry x="552" y="705.5" width="200" height="60" as="geometry" />
        </mxCell>
        <mxCell id="19" value="장바구니 이력 조회" style="rounded=1;fillColor=#10739E;strokeColor=none;shadow=1;gradientColor=none;fontStyle=1;fontColor=#FFFFFF;fontSize=14;" parent="1" vertex="1">
          <mxGeometry x="842" y="705.5" width="200" height="60" as="geometry" />
        </mxCell>
        <mxCell id="20" value="배송조회" style="rounded=1;strokeColor=none;shadow=1;gradientColor=none;fontStyle=1;fontColor=#FFFFFF;fontSize=14;fillColor=#10739E;" parent="1" vertex="1">
          <mxGeometry x="842" y="795.5" width="200" height="60" as="geometry" />
        </mxCell>
        <mxCell id="21" value="주문조회" style="rounded=1;fillColor=#10739E;strokeColor=none;shadow=1;gradientColor=none;fontStyle=1;fontColor=#FFFFFF;fontSize=14;" parent="1" vertex="1">
          <mxGeometry x="842" y="885.5" width="200" height="60" as="geometry" />
        </mxCell>
        <mxCell id="qB4Lg8TbUBdIFVPG2dWj-76" style="edgeStyle=orthogonalEdgeStyle;rounded=1;orthogonalLoop=1;jettySize=auto;html=1;exitX=0.5;exitY=1;exitDx=0;exitDy=0;entryX=0.5;entryY=0;entryDx=0;entryDy=0;strokeWidth=3;" edge="1" parent="1" source="5" target="13">
          <mxGeometry relative="1" as="geometry" />
        </mxCell>
        <mxCell id="qB4Lg8TbUBdIFVPG2dWj-77" style="edgeStyle=orthogonalEdgeStyle;rounded=1;orthogonalLoop=1;jettySize=auto;html=1;entryX=0.5;entryY=0;entryDx=0;entryDy=0;strokeWidth=3;" edge="1" parent="1" source="5" target="18">
          <mxGeometry relative="1" as="geometry" />
        </mxCell>
        <mxCell id="qB4Lg8TbUBdIFVPG2dWj-79" style="edgeStyle=orthogonalEdgeStyle;rounded=1;orthogonalLoop=1;jettySize=auto;html=1;entryX=0.5;entryY=0;entryDx=0;entryDy=0;strokeWidth=3;exitX=0.5;exitY=1;exitDx=0;exitDy=0;" edge="1" parent="1" source="5" target="23">
          <mxGeometry relative="1" as="geometry">
            <Array as="points">
              <mxPoint x="942" y="550" />
              <mxPoint x="1192" y="550" />
            </Array>
          </mxGeometry>
        </mxCell>
        <mxCell id="qB4Lg8TbUBdIFVPG2dWj-80" style="edgeStyle=orthogonalEdgeStyle;rounded=1;orthogonalLoop=1;jettySize=auto;html=1;entryX=1;entryY=0.5;entryDx=0;entryDy=0;strokeWidth=3;" edge="1" parent="1" source="5" target="4">
          <mxGeometry relative="1" as="geometry" />
        </mxCell>
        <mxCell id="5" value="로그인" style="rounded=1;strokeColor=#006EAF;shadow=1;fontStyle=1;fontSize=14;fontColor=#ffffff;fillColor=#10739E;" parent="1" vertex="1">
          <mxGeometry x="842" y="420" width="200" height="60" as="geometry" />
        </mxCell>
        <mxCell id="7K2ZeRDJW1N4FeQ3j8sl-57" value="" style="startArrow=oval;startFill=0;startSize=7;endArrow=block;endFill=0;endSize=10;dashed=1;html=1;exitX=1;exitY=0.5;exitDx=0;exitDy=0;entryX=0;entryY=0.5;entryDx=0;entryDy=0;" parent="1" source="12" target="18" edge="1">
          <mxGeometry width="100" relative="1" as="geometry">
            <mxPoint x="840" y="960" as="sourcePoint" />
            <mxPoint x="940" y="960" as="targetPoint" />
            <Array as="points">
              <mxPoint x="800" y="1100" />
              <mxPoint x="800" y="646" />
            </Array>
          </mxGeometry>
        </mxCell>
        <mxCell id="qB4Lg8TbUBdIFVPG2dWj-81" style="edgeStyle=orthogonalEdgeStyle;rounded=1;orthogonalLoop=1;jettySize=auto;html=1;entryX=0.5;entryY=0;entryDx=0;entryDy=0;strokeWidth=3;" edge="1" parent="1" source="4" target="8">
          <mxGeometry relative="1" as="geometry" />
        </mxCell>
        <mxCell id="qB4Lg8TbUBdIFVPG2dWj-82" style="edgeStyle=orthogonalEdgeStyle;rounded=1;orthogonalLoop=1;jettySize=auto;html=1;strokeWidth=3;" edge="1" parent="1" source="4" target="qB4Lg8TbUBdIFVPG2dWj-62">
          <mxGeometry relative="1" as="geometry">
            <Array as="points">
              <mxPoint x="382" y="550" />
              <mxPoint x="141" y="550" />
            </Array>
          </mxGeometry>
        </mxCell>
        <mxCell id="4" value="검색엔진" style="rounded=1;fillColor=#10739E;strokeColor=none;shadow=1;gradientColor=none;fontStyle=1;fontColor=#FFFFFF;fontSize=14;" parent="1" vertex="1">
          <mxGeometry x="282" y="420" width="200" height="60" as="geometry" />
        </mxCell>
        <mxCell id="7K2ZeRDJW1N4FeQ3j8sl-61" value="재휴 쇼핑몰 결제창" style="rounded=1;fillColor=#10739E;strokeColor=none;shadow=1;gradientColor=none;fontStyle=1;fontColor=#FFFFFF;fontSize=14;" parent="1" vertex="1">
          <mxGeometry x="842" y="1070" width="200" height="60" as="geometry" />
        </mxCell>
        <mxCell id="22" value="주문" style="rounded=1;fillColor=#10739E;strokeColor=none;shadow=1;gradientColor=none;fontStyle=1;fontColor=#FFFFFF;fontSize=14;" parent="1" vertex="1">
          <mxGeometry x="842" y="975.5" width="200" height="60" as="geometry" />
        </mxCell>
        <mxCell id="7K2ZeRDJW1N4FeQ3j8sl-63" value="" style="edgeStyle=elbowEdgeStyle;elbow=vertical;strokeWidth=4;endArrow=block;endFill=1;fontStyle=1;strokeColor=#23445D;exitX=0.5;exitY=1;exitDx=0;exitDy=0;entryX=0.5;entryY=0;entryDx=0;entryDy=0;" parent="1" source="23" target="7K2ZeRDJW1N4FeQ3j8sl-77" edge="1">
          <mxGeometry x="82" y="175.5" width="100" height="100" as="geometry">
            <mxPoint x="952" y="685.5" as="sourcePoint" />
            <mxPoint x="1192" y="1070" as="targetPoint" />
          </mxGeometry>
        </mxCell>
        <mxCell id="24" value="APP 설정" style="rounded=1;fillColor=#fad9d5;strokeColor=#ae4132;shadow=1;fontStyle=1;fontSize=14;" parent="1" vertex="1">
          <mxGeometry x="1092" y="705.5" width="200" height="60" as="geometry" />
        </mxCell>
        <mxCell id="25" value="베송조회" style="rounded=1;fillColor=#10739E;strokeColor=none;shadow=1;gradientColor=none;fontStyle=1;fontColor=#FFFFFF;fontSize=14;" parent="1" vertex="1">
          <mxGeometry x="1092" y="795.5" width="200" height="60" as="geometry" />
        </mxCell>
        <mxCell id="26" value="주문조회" style="rounded=1;fillColor=#10739E;strokeColor=none;shadow=1;gradientColor=none;fontStyle=1;fontColor=#FFFFFF;fontSize=14;" parent="1" vertex="1">
          <mxGeometry x="1092" y="885.5" width="200" height="60" as="geometry" />
        </mxCell>
        <mxCell id="7K2ZeRDJW1N4FeQ3j8sl-64" value="" style="edgeStyle=elbowEdgeStyle;elbow=vertical;strokeWidth=4;endArrow=block;endFill=1;fontStyle=1;strokeColor=#23445D;entryX=0.5;entryY=0;entryDx=0;entryDy=0;exitX=0.5;exitY=1;exitDx=0;exitDy=0;" parent="1" source="22" target="7K2ZeRDJW1N4FeQ3j8sl-61" edge="1">
          <mxGeometry x="82" y="175.5" width="100" height="100" as="geometry">
            <mxPoint x="952" y="685.5" as="sourcePoint" />
            <mxPoint x="952" y="985.5" as="targetPoint" />
          </mxGeometry>
        </mxCell>
        <mxCell id="7K2ZeRDJW1N4FeQ3j8sl-65" value="연동 후, 노출" style="text;html=1;strokeColor=none;fillColor=none;align=center;verticalAlign=middle;whiteSpace=wrap;rounded=0;" parent="1" vertex="1">
          <mxGeometry x="920" y="330" width="98" height="20" as="geometry" />
        </mxCell>
        <mxCell id="7K2ZeRDJW1N4FeQ3j8sl-66" value="" style="startArrow=oval;startFill=0;startSize=7;endArrow=block;endFill=0;endSize=10;dashed=1;html=1;entryX=0.5;entryY=0;entryDx=0;entryDy=0;exitX=1;exitY=0.5;exitDx=0;exitDy=0;" parent="1" source="1WMlmqz9AwvqURgGaY2q-55" target="2" edge="1">
          <mxGeometry width="100" relative="1" as="geometry">
            <mxPoint x="1230" y="120" as="sourcePoint" />
            <mxPoint x="890" y="550" as="targetPoint" />
            <Array as="points">
              <mxPoint x="1540" y="230" />
              <mxPoint x="1540" y="80" />
              <mxPoint x="880" y="80" />
            </Array>
          </mxGeometry>
        </mxCell>
        <mxCell id="27" value="관심 레시피" style="rounded=1;fillColor=#10739E;strokeColor=none;shadow=1;gradientColor=none;fontStyle=1;fontColor=#FFFFFF;fontSize=14;" parent="1" vertex="1">
          <mxGeometry x="1092" y="975.5" width="200" height="60" as="geometry" />
        </mxCell>
        <mxCell id="7K2ZeRDJW1N4FeQ3j8sl-70" value="" style="rounded=0;whiteSpace=wrap;html=1;strokeColor=#0e8088;fillColor=#b0e3e6;" parent="1" vertex="1">
          <mxGeometry x="800" y="1200" width="560" height="390" as="geometry" />
        </mxCell>
        <mxCell id="7K2ZeRDJW1N4FeQ3j8sl-71" value="APP 설정" style="rounded=1;fillColor=#fad9d5;strokeColor=#ae4132;shadow=1;fontStyle=1;fontSize=14;" parent="1" vertex="1">
          <mxGeometry x="1120" y="1170" width="200" height="60" as="geometry" />
        </mxCell>
        <mxCell id="7K2ZeRDJW1N4FeQ3j8sl-73" value="" style="endArrow=none;dashed=1;html=1;entryX=1;entryY=0.5;entryDx=0;entryDy=0;exitX=1;exitY=0.5;exitDx=0;exitDy=0;" parent="1" source="7K2ZeRDJW1N4FeQ3j8sl-71" target="24" edge="1">
          <mxGeometry width="50" height="50" relative="1" as="geometry">
            <mxPoint x="580" y="1060" as="sourcePoint" />
            <mxPoint x="630" y="1010" as="targetPoint" />
            <Array as="points">
              <mxPoint x="1380" y="1200" />
              <mxPoint x="1380" y="736" />
            </Array>
          </mxGeometry>
        </mxCell>
        <mxCell id="7K2ZeRDJW1N4FeQ3j8sl-75" value="" style="edgeStyle=elbowEdgeStyle;elbow=vertical;strokeWidth=4;endArrow=block;endFill=1;fontStyle=1;strokeColor=#23445D;entryX=0.5;entryY=1;entryDx=0;entryDy=0;exitX=0.5;exitY=1;exitDx=0;exitDy=0;" parent="1" source="7K2ZeRDJW1N4FeQ3j8sl-71" target="7K2ZeRDJW1N4FeQ3j8sl-84" edge="1">
          <mxGeometry x="652" y="540" width="100" height="100" as="geometry">
            <mxPoint x="1230" y="1280" as="sourcePoint" />
            <mxPoint x="1100" y="1550" as="targetPoint" />
            <Array as="points">
              <mxPoint x="1210" y="1400" />
            </Array>
          </mxGeometry>
        </mxCell>
        <mxCell id="7K2ZeRDJW1N4FeQ3j8sl-60" value="" style="startArrow=oval;startFill=0;startSize=7;endArrow=block;endFill=0;endSize=10;dashed=1;html=1;entryX=0;entryY=0.5;entryDx=0;entryDy=0;" parent="1" target="7K2ZeRDJW1N4FeQ3j8sl-71" edge="1">
          <mxGeometry width="100" relative="1" as="geometry">
            <mxPoint x="282" y="920" as="sourcePoint" />
            <mxPoint x="1294" y="645.5" as="targetPoint" />
            <Array as="points">
              <mxPoint x="242" y="920" />
              <mxPoint x="242" y="1160" />
              <mxPoint x="242" y="1200" />
            </Array>
          </mxGeometry>
        </mxCell>
        <mxCell id="7K2ZeRDJW1N4FeQ3j8sl-77" value="로그아웃" style="rounded=1;fillColor=#10739E;strokeColor=none;shadow=1;gradientColor=none;fontStyle=1;fontColor=#FFFFFF;fontSize=14;" parent="1" vertex="1">
          <mxGeometry x="1092" y="1070" width="200" height="60" as="geometry" />
        </mxCell>
        <mxCell id="7K2ZeRDJW1N4FeQ3j8sl-80" value="라이트/나이트모드" style="rounded=1;fillColor=#10739E;strokeColor=none;shadow=1;gradientColor=none;fontStyle=1;fontColor=#FFFFFF;fontSize=14;" parent="1" vertex="1">
          <mxGeometry x="1120" y="1370" width="200" height="60" as="geometry" />
        </mxCell>
        <mxCell id="7K2ZeRDJW1N4FeQ3j8sl-84" value="공지사항" style="rounded=1;fillColor=#10739E;strokeColor=none;shadow=1;gradientColor=none;fontStyle=1;fontColor=#FFFFFF;fontSize=14;" parent="1" vertex="1">
          <mxGeometry x="1120" y="1470" width="200" height="60" as="geometry" />
        </mxCell>
        <mxCell id="7K2ZeRDJW1N4FeQ3j8sl-86" value="알림 설정" style="rounded=1;fillColor=#10739E;strokeColor=none;shadow=1;gradientColor=none;fontStyle=1;fontColor=#FFFFFF;fontSize=14;" parent="1" vertex="1">
          <mxGeometry x="1120" y="1270" width="200" height="60" as="geometry" />
        </mxCell>
        <mxCell id="7K2ZeRDJW1N4FeQ3j8sl-87" value="" style="edgeStyle=elbowEdgeStyle;elbow=vertical;strokeWidth=4;endArrow=block;endFill=1;fontStyle=1;strokeColor=#23445D;exitX=0;exitY=0.5;exitDx=0;exitDy=0;entryX=0.5;entryY=1;entryDx=0;entryDy=0;" parent="1" source="7K2ZeRDJW1N4FeQ3j8sl-86" target="7K2ZeRDJW1N4FeQ3j8sl-89" edge="1">
          <mxGeometry x="662" y="550" width="100" height="100" as="geometry">
            <mxPoint x="1230" y="1240" as="sourcePoint" />
            <mxPoint x="935" y="1460" as="targetPoint" />
            <Array as="points">
              <mxPoint x="1030" y="1300" />
              <mxPoint x="950" y="1310" />
            </Array>
          </mxGeometry>
        </mxCell>
        <mxCell id="7K2ZeRDJW1N4FeQ3j8sl-79" value="재료 부족 알림" style="rounded=1;fillColor=#10739E;strokeColor=none;shadow=1;gradientColor=none;fontStyle=1;fontColor=#FFFFFF;fontSize=14;" parent="1" vertex="1">
          <mxGeometry x="835" y="1280" width="200" height="60" as="geometry" />
        </mxCell>
        <mxCell id="7K2ZeRDJW1N4FeQ3j8sl-88" value="공지사항, Push 알림" style="rounded=1;fillColor=#10739E;strokeColor=none;shadow=1;gradientColor=none;fontStyle=1;fontColor=#FFFFFF;fontSize=14;" parent="1" vertex="1">
          <mxGeometry x="835" y="1370" width="200" height="60" as="geometry" />
        </mxCell>
        <mxCell id="7K2ZeRDJW1N4FeQ3j8sl-89" value="유통기한 알림" style="rounded=1;fillColor=#10739E;strokeColor=none;shadow=1;gradientColor=none;fontStyle=1;fontColor=#FFFFFF;fontSize=14;" parent="1" vertex="1">
          <mxGeometry x="835" y="1460" width="200" height="60" as="geometry" />
        </mxCell>
        <mxCell id="qB4Lg8TbUBdIFVPG2dWj-57" value="회원가입" style="rounded=1;strokeColor=#006EAF;shadow=1;fontStyle=1;fontSize=14;fontColor=#ffffff;fillColor=#10739E;" vertex="1" parent="1">
          <mxGeometry x="1270" y="110" width="200" height="60" as="geometry" />
        </mxCell>
        <mxCell id="qB4Lg8TbUBdIFVPG2dWj-60" value="" style="endArrow=classic;html=1;exitX=1;exitY=0.5;exitDx=0;exitDy=0;entryX=0;entryY=0.5;entryDx=0;entryDy=0;" edge="1" parent="1" source="5" target="qB4Lg8TbUBdIFVPG2dWj-57">
          <mxGeometry relative="1" as="geometry">
            <mxPoint x="1290" y="430.40999999999997" as="sourcePoint" />
            <mxPoint x="1390" y="430" as="targetPoint" />
          </mxGeometry>
        </mxCell>
        <mxCell id="qB4Lg8TbUBdIFVPG2dWj-61" value="Label" style="edgeLabel;resizable=0;html=1;align=center;verticalAlign=middle;" connectable="0" vertex="1" parent="qB4Lg8TbUBdIFVPG2dWj-60">
          <mxGeometry relative="1" as="geometry" />
        </mxCell>
        <mxCell id="qB4Lg8TbUBdIFVPG2dWj-75" value="" style="edgeStyle=orthogonalEdgeStyle;rounded=1;orthogonalLoop=1;jettySize=auto;html=1;strokeWidth=3;" edge="1" parent="1" source="qB4Lg8TbUBdIFVPG2dWj-62" target="qB4Lg8TbUBdIFVPG2dWj-64">
          <mxGeometry relative="1" as="geometry" />
        </mxCell>
        <mxCell id="qB4Lg8TbUBdIFVPG2dWj-62" value="MENU1 : 상품검색" style="rounded=1;fillColor=#dae8fc;strokeColor=#6c8ebf;shadow=1;fontStyle=1;fontSize=14;" vertex="1" parent="1">
          <mxGeometry x="41" y="615.5" width="200" height="60" as="geometry" />
        </mxCell>
        <mxCell id="qB4Lg8TbUBdIFVPG2dWj-73" style="edgeStyle=orthogonalEdgeStyle;rounded=1;orthogonalLoop=1;jettySize=auto;html=1;entryX=0.5;entryY=0;entryDx=0;entryDy=0;strokeWidth=3;" edge="1" parent="1" source="qB4Lg8TbUBdIFVPG2dWj-64" target="qB4Lg8TbUBdIFVPG2dWj-65">
          <mxGeometry relative="1" as="geometry" />
        </mxCell>
        <mxCell id="qB4Lg8TbUBdIFVPG2dWj-64" value="카테고리" style="rounded=1;fillColor=#10739E;strokeColor=none;shadow=1;gradientColor=none;fontStyle=1;fontColor=#FFFFFF;fontSize=14;" vertex="1" parent="1">
          <mxGeometry x="40" y="705.5" width="200" height="60" as="geometry" />
        </mxCell>
        <mxCell id="qB4Lg8TbUBdIFVPG2dWj-65" value="재료 정보 조회" style="rounded=1;fillColor=#10739E;strokeColor=none;shadow=1;gradientColor=none;fontStyle=1;fontColor=#FFFFFF;fontSize=14;" vertex="1" parent="1">
          <mxGeometry x="40" y="885.5" width="200" height="60" as="geometry" />
        </mxCell>
        <mxCell id="qB4Lg8TbUBdIFVPG2dWj-68" value="" style="edgeStyle=elbowEdgeStyle;elbow=vertical;strokeWidth=4;endArrow=block;endFill=1;fontStyle=1;strokeColor=#23445D;entryX=0;entryY=0.5;entryDx=0;entryDy=0;exitX=0.5;exitY=1;exitDx=0;exitDy=0;" edge="1" parent="1" source="qB4Lg8TbUBdIFVPG2dWj-65" target="12">
          <mxGeometry x="72" y="205.5" width="100" height="100" as="geometry">
            <mxPoint x="141" y="950" as="sourcePoint" />
            <mxPoint x="530" y="1080" as="targetPoint" />
            <Array as="points">
              <mxPoint x="160" y="1100" />
            </Array>
          </mxGeometry>
        </mxCell>
      </root>
    </mxGraphModel>
  </diagram>
</mxfile>
